<svg width="90" height="90" viewBox="0 0 900 900" fill="none" xmlns="http://www.w3.org/2000/svg">
<g clip-path="url(#clip0_7_34)">
<path d="M562.35 133.6C545.175 133.6 528.55 135.25 512.575 138.025C492.1 135.425 444.075 132.25 422.8 132.25C210.975 132.25 25.6499 211.675 25.6499 489.7C25.6499 715.6 201.875 898.725 450.05 898.725C698.225 898.725 899.4 715.6 899.4 489.7C899.375 208.475 664.75 133.6 562.35 133.6Z" fill="#EB2A2A"/>
<path d="M210.975 2.27499C251.9 43.175 280.225 58.925 292.825 125.025C300.275 164.125 349.475 162.775 349.475 162.775C349.475 162.775 251.9 206.85 210.975 247.775C210.975 247.775 333.725 206.85 374.65 206.85C374.65 206.85 456.475 247.775 456.475 288.675C456.475 288.675 456.475 206.85 415.575 206.85C415.575 206.85 538.3 206.85 538.3 288.675C538.3 288.675 538.3 165.925 497.375 165.925C497.375 165.925 620.15 125.025 661.075 165.925C661.075 165.925 618.925 122.925 538.3 125.025C538.3 125.025 579.25 84.1 661.075 84.1C661.075 84.1 528.875 46.325 487.95 128.175C487.95 128.175 453.325 93.55 522.575 24.3C522.575 24.3 415.575 43.175 415.575 125.025C415.575 125.025 376.775 124.025 349.475 93.55C295.95 33.75 210.975 2.27499 210.975 2.27499Z" fill="url(#paint0_linear_7_34)"/>
<path d="M126.074 375.392V394.688H219.674C215.066 438.464 175.61 472.448 112.538 488.864L122.042 507.584C197.498 487.424 245.018 441.344 245.018 375.392H126.074ZM177.626 536.096H298.298V594.56H177.626V536.096ZM154.586 613.568H321.626V517.376H154.586V613.568ZM298.01 358.976V504.992H321.626V358.976H298.01ZM437.955 405.056H498.723V385.472H354.435V405.056H414.339V437.888C414.339 482.528 382.947 531.2 345.795 548.768L359.619 567.776C388.995 552.8 414.339 520.256 426.147 482.528C438.531 517.952 463.875 547.616 493.827 561.44L507.075 542.432C469.059 526.304 437.955 481.664 437.955 437.888V405.056ZM533.571 359.264V617.312H557.187V359.264H533.571ZM801.965 380.864H710.669V355.52H687.053V380.864H594.029V399.296H801.965V380.864ZM698.861 599.456C657.389 599.456 634.349 591.968 634.349 577.856C634.349 563.456 657.389 555.68 698.861 555.68C740.045 555.68 762.797 563.456 762.797 577.856C762.797 591.968 740.045 599.456 698.861 599.456ZM698.861 538.112C642.413 538.112 610.157 551.648 610.157 577.856C610.157 603.488 642.413 617.024 698.861 617.024C754.733 617.024 786.989 603.488 786.989 577.856C786.989 551.648 754.733 538.112 698.861 538.112ZM640.109 446.528C640.109 433.568 661.133 426.368 698.861 426.368C736.013 426.368 757.037 433.568 757.037 446.528C757.037 459.488 736.013 466.688 698.861 466.688C661.133 466.688 640.109 459.488 640.109 446.528ZM710.669 503.264V483.104C756.173 481.376 782.093 468.704 782.093 446.528C782.093 422.048 751.853 409.376 698.861 409.376C645.293 409.376 615.341 422.048 615.341 446.528C615.341 468.704 640.973 481.376 687.053 483.104V503.264H581.933V521.984H815.213V503.264H710.669Z" fill="white"/>
</g>
<defs>
<linearGradient id="paint0_linear_7_34" x1="436.025" y1="2.27499" x2="436.025" y2="288.675" gradientUnits="userSpaceOnUse">
<stop offset="0.414583" stop-color="#296802"/>
<stop offset="1"/>
</linearGradient>
<clipPath id="clip0_7_34">
<rect width="900" height="900" fill="white"/>
</clipPath>
</defs>
</svg>
